<svg width="401" height="145" fill="none" xmlns="http://www.w3.org/2000/svg"><path fill-rule="evenodd" clip-rule="evenodd" d="M308.641 3.983c0 .111-.664.189-1.612.189-.948 0-1.612.079-1.612.19 0 .107-.539.19-1.239.19-.926 0-1.266.072-1.348.284-.076.2-.387.285-1.037.285-.51 0-.928.085-.928.189 0 .105-.341.19-.759.19-.417 0-.758.085-.758.19 0 .104-.342.189-.759.189s-.759.086-.759.19c0 .104-.303.19-.675.19-.401 0-.627.077-.557.189.069.113-.156.19-.558.19-.474 0-.675.085-.675.285 0 .189-.19.284-.569.284-.313 0-.569.085-.569.19 0 .104-.214.189-.474.189-.261 0-.474.086-.474.19 0 .104-.304.19-.675.19-.402 0-.628.077-.558.189.064.105-.059.19-.274.19-.22 0-.39.124-.39.285 0 .177-.179.284-.474.284-.261 0-.474.085-.474.19 0 .104-.214.189-.475.189-.26 0-.474.086-.474.19 0 .104-.17.19-.379.19s-.379.085-.379.189c0 .105-.214.19-.475.19-.295 0-.474.108-.474.285a.285.285 0 0 1-.284.284c-.157 0-.285.085-.285.19 0 .104-.17.189-.379.189s-.379.086-.379.19c0 .104-.171.19-.38.19-.208 0-.379.085-.379.189 0 .105-.168.19-.373.19-.266 0-.34.088-.256.306.093.244.034.28-.291.177-.254-.081-.408-.048-.408.087 0 .332-.501.758-.893.758-.193 0-.474.17-.624.379-.15.209-.425.379-.611.379-.185 0-.337.128-.337.285 0 .156-.109.284-.243.284-.133 0-.366.171-.516.38-.15.208-.404.382-.563.385-.318.007-.954.433-.954.64 0 .206-.91 1.061-1.13 1.061a.2.2 0 0 0-.198.201c0 .11-.085.148-.19.083-.104-.064-.189.068-.189.294 0 .293-.084.379-.295.298-.17-.065-.245-.033-.177.076.064.104-.031.337-.212.518-.229.228-.352.259-.405.1-.071-.212-1.377.915-1.377 1.187 0 .191-.528.657-.745.657-.112 0-.203.171-.203.379 0 .266-.128.38-.427.382-.321.003-.361.045-.162.171.213.135.162.27-.256.689-.425.425-.556.472-.709.256-.144-.202-.161-.179-.071.096.085.26-.07.533-.551.974-.368.337-.669.705-.669.818 0 .113-.117.161-.26.106-.192-.074-.236.028-.168.385.06.311.008.485-.144.485-.331 0-1.135.974-1.135 1.375 0 .183-.085.332-.19.332-.104 0-.189.138-.189.305 0 .193-.105.265-.285.196-.193-.074-.284.01-.284.264 0 .205-.086.373-.19.373-.104 0-.19.128-.19.285 0 .156-.085.284-.189.284-.105 0-.19.171-.19.38 0 .208-.085.379-.19.379-.104 0-.189.18-.189.4 0 .277-.087.366-.285.29-.195-.075-.284.012-.284.275 0 .212-.086.332-.19.268-.108-.067-.19.093-.19.368 0 .267-.085.485-.189.485-.105 0-.19.214-.19.474 0 .261-.085.475-.19.475-.104 0-.189.17-.189.379 0 .213-.127.379-.288.379-.213 0-.257.125-.17.474.09.359.045.475-.186.475-.178 0-.305.157-.305.379 0 .209-.085.379-.189.379-.105 0-.19.304-.19.675 0 .402-.077.628-.19.558-.107-.066-.189.093-.189.368 0 .267-.086.486-.19.486-.104 0-.19.262-.19.583 0 .32-.21 1.209-.467 1.974-1.644 4.898-2.053 7.657-2.075 13.991-.011 3.219.053 5.286.164 5.324.101.033.158.46.128.948-.043.704.007.887.245.887.227 0 .298.204.298.854 0 .469.086.853.19.853.104 0 .19.257.19.569 0 .313.085.569.189.569.105 0 .191.406.193.901.002.652.054.823.187.617.137-.212.184-.105.186.421.003.548.067.681.288.596.208-.08.284.023.284.385 0 .272.086.494.19.494.104 0 .19.171.19.38 0 .208.085.379.189.379.105 0 .19.213.19.474s.085.474.19.474c.104 0 .189.214.189.475 0 .278.098.454.237.426.144-.028.22.122.192.38-.025.234.045.426.154.426s.146-.085.081-.189c-.064-.105-.027-.19.084-.19.11 0 .201.171.201.379 0 .209.094.38.21.38.115 0 .16.129.099.287-.107.279.886 1.42 1.236 1.42.089 0 .162.128.162.284 0 .157.085.285.189.285.105 0 .19.132.19.293 0 .33.825 1.224 1.129 1.224.109 0 .199.088.199.196 0 .255 1.256 1.511 1.511 1.511.107 0 .196.133.196.296 0 .175-.09.24-.219.16-.137-.085-.168-.052-.082.087.075.122.215.173.311.114.195-.12 1.507 1.118 1.507 1.423 0 .108.194.196.432.196s.556.171.706.379c.15.209.382.379.516.379.133 0 .243.086.243.19 0 .104.132.19.293.19.162 0 .491.213.733.474s.579.474.75.474c.17 0 .31.085.31.19 0 .104.171.189.379.189.209 0 .379.086.379.19 0 .104.134.19.296.19.163 0 .242.087.176.194-.066.107-.05.182.036.167.585-.101 1.199.054 1.199.303 0 .158.169.284.38.284.208 0 .379.085.379.19 0 .104.213.189.474.189s.474.086.474.19c0 .104.256.19.569.19.313 0 .569.085.569.189 0 .105.256.19.569.19.38 0 .569.095.569.285 0 .197.199.284.653.284.359 0 .705.085.77.19.064.104.453.189.865.189.411 0 .747.086.747.19 0 .104.384.19.853.19.47 0 .854.085.854.189 0 .11.601.19 1.422.19.822 0 1.423.08 1.423.19 0 .104-.1.189-.221.189-.122 0-.18.042-.13.092.379.379 12.149-.433 14.86-1.026.417-.091 1.186-.255 1.707-.365.92-.194 2.781-.741 5.121-1.507 2.512-.822 6.273-2.557 8.92-4.115.976-.575 1.903-1.044 2.059-1.044.156 0 .336-.086.401-.19.064-.104.283-.19.485-.19.203 0 .368-.094.368-.21 0-.115.127-.161.283-.101.155.059.273.047.262-.028-.07-.467.059-.644.404-.554.208.054.379.016.379-.086 0-.293.511-.728.853-.728.307 0 .854-.425.854-.664 0-.197.524-.663.745-.663.112 0 .203-.086.203-.19 0-.104.152-.19.338-.19.185 0 .46-.17.611-.379.15-.209.446-.386.658-.394.212-.009.276-.059.143-.113-.34-.136 1.18-1.579 1.664-1.579.209 0 .38-.089.38-.196 0-.215 1.237-1.511 1.442-1.511.205 0 .631-.638.638-.954.003-.16.177-.413.385-.564.209-.15.379-.392.379-.538 0-.171.134-.23.38-.165.21.055.331.02.27-.078-.06-.098.153-.423.474-.722.321-.3.583-.734.583-.964 0-.287.086-.385.275-.313.184.071.24.015.17-.169-.058-.151-.007-.275.113-.275.326 0 1.149-.886 1.149-1.238 0-.347.44-.848.746-.848.111 0 .203-.195.203-.433 0-.237.17-.555.379-.705.209-.151.379-.425.379-.611s.086-.338.19-.338c.104 0 .19-.223.19-.497 0-.421.044-.461.284-.261.238.197.285.17.285-.167 0-.221.085-.402.189-.402.105 0 .19-.214.19-.474 0-.261.085-.474.19-.474.104 0 .189-.171.189-.38 0-.208.086-.379.19-.379.104 0 .19-.171.19-.379 0-.211.126-.38.284-.38.179 0 .285-.18.285-.485 0-.275.082-.435.189-.368.111.068.19-.125.19-.463 0-.319.085-.58.19-.58.104 0 .189-.171.189-.38 0-.208.086-.379.19-.379.104 0 .19-.265.19-.589 0-.431.072-.562.269-.486.203.078.252-.033.199-.454-.05-.393.01-.557.204-.557.189 0 .276-.21.276-.664 0-.365.085-.664.19-.664.104 0 .189-.299.189-.664 0-.365.086-.664.19-.664.104 0 .19-.341.19-.758 0-.418.085-.759.189-.759.105 0 .19-.35.19-.779 0-.614.06-.756.284-.67.235.09.285-.105.285-1.117 0-.692.083-1.227.19-1.227.109 0 .189-.601.189-1.423 0-.822.08-1.422.19-1.422.12 0 .19-1.454.19-3.983s-.07-3.983-.19-3.983c-.108 0-.19-.569-.19-1.328 0-.758-.081-1.327-.189-1.327-.106 0-.19-.504-.19-1.132 0-.929-.051-1.113-.285-1.023-.227.087-.284-.067-.284-.776 0-.542-.074-.84-.19-.768-.11.069-.189-.124-.189-.463 0-.319-.086-.58-.19-.58-.104 0-.19-.256-.19-.569 0-.313-.085-.569-.189-.569-.105 0-.19-.259-.19-.575 0-.341-.118-.62-.29-.686-.183-.07-.249-.243-.177-.468.078-.246.021-.357-.184-.357-.191 0-.297-.17-.297-.474 0-.261-.086-.475-.19-.475-.104 0-.19-.128-.19-.284 0-.156-.085-.284-.189-.284-.105 0-.19-.257-.19-.569 0-.313-.085-.569-.19-.569-.104 0-.189-.126-.189-.279 0-.17-.112-.236-.285-.169-.192.073-.284-.01-.284-.255 0-.2-.171-.547-.38-.771-.208-.224-.379-.545-.379-.713 0-.299-.426-.848-.659-.848-.273 0-1.119-1.019-.906-1.091.213-.071-.536-.995-.806-.995-.149 0-1.043-.899-1.043-1.048 0-.155-.508-.659-.664-.659-.202 0-.664-.527-.664-.758 0-.13-.151-.168-.379-.096-.318.101-.38.034-.382-.414-.002-.337-.059-.447-.154-.297-.114.18-.249.146-.558-.142-.224-.209-.501-.38-.616-.38-.115 0-.156-.085-.092-.189.065-.105-.058-.19-.273-.19-.221 0-.391-.124-.391-.284a.285.285 0 0 0-.284-.285c-.156 0-.284-.085-.284-.19 0-.104-.152-.189-.338-.189-.186 0-.46-.171-.611-.38-.15-.208-.477-.379-.726-.379-.324 0-.421-.081-.343-.284.08-.21-.027-.286-.407-.288-.402-.002-.453-.043-.231-.187.212-.136.103-.184-.427-.186-.391-.002-.711-.089-.711-.193 0-.104-.17-.19-.379-.19s-.379-.085-.379-.189c0-.105-.214-.19-.475-.19-.303 0-.474-.107-.474-.296 0-.199-.141-.277-.426-.237-.264.036-.409-.032-.38-.178.031-.154-.186-.237-.616-.237-.365 0-.664-.086-.664-.19 0-.104-.299-.19-.664-.19-.365 0-.664-.085-.664-.189 0-.105-.298-.19-.663-.19-.366 0-.664-.085-.664-.19 0-.104-.436-.189-.969-.189-.783 0-.948-.055-.859-.285.09-.235-.105-.284-1.118-.284-.692 0-1.227-.083-1.227-.19 0-.111-.664-.19-1.612-.19-.948 0-1.612-.078-1.612-.189 0-.12-1.296-.19-3.509-.19s-3.509.07-3.509.19Zm7.204 17.873c1.114.411 2.42 1.28 3.275 2.178.661.695.737.601-2.608 3.217-3.479 2.722-3.238 2.609-4.093 1.922-2.392-1.923-6.874.184-6.349 2.983.328 1.75 1.442 1.785 5.342.166 8.239-3.42 12.331-3.225 15.3.726 3.623 4.822 1.915 11.018-4.233 15.352-6.552 4.62-11.884 4.821-15.98.603-.982-1.01-1.046-.914 2.452-3.659l3.154-2.476.497.384c3.533 2.733 8.006 1.43 8.33-2.426.229-2.712-2.236-3.228-6.79-1.421-6.674 2.646-10.74 2.553-13.311-.307-4.03-4.482-2.159-10.4 4.706-14.885 4.288-2.802 7.26-3.481 10.308-2.357Zm-24.541 13.377c.113.076 1.729 2.315 3.59 4.976 3.521 5.031 3.759 5.368 5.288 7.515 5.3 7.438 4.811 12.943-1.537 17.279-5.91 4.036-10.447 3.872-14.557-.528l-.941-1.006 2.268-2.163c1.248-1.189 2.657-2.491 3.133-2.893l.864-.73.808.938c1.8 2.09 4.019 2.168 5.048.178.872-1.685.937-1.574-9.325-15.894-1.068-1.49-1.901-2.813-1.851-2.94.084-.215 6.698-4.881 6.909-4.874.053.001.189.065.303.142Z" fill="#000"/><path fill-rule="evenodd" clip-rule="evenodd" d="M230.595.19c-.065.104-.752.189-1.529.189-.814 0-1.411.08-1.411.19 0 .108-.565.19-1.316.19-.724 0-1.363.074-1.419.164-.056.091-.445.22-.864.287-.42.067-.763.206-.763.309 0 .104-.342.188-.759.188s-.759.085-.759.19c0 .104-.213.189-.474.189-.26 0-.474.086-.474.19 0 .104-.142.19-.315.19-.427 0-1.771.603-1.771.795 0 .084-.128.153-.285.153-.156 0-.284.085-.284.189 0 .105-.129.19-.287.19-.386 0-1.043.381-1.553.901-.23.235-.507.427-.616.427-.242 0-3.424 3.101-3.424 3.338 0 .094-.256.469-.569.834-.312.365-.568.814-.568.996 0 .183-.107.333-.238.334-.269.001-.711.849-.711 1.363 0 .188-.085.342-.19.342-.104 0-.189.171-.189.379 0 .209-.086.38-.19.38-.104 0-.19.347-.19.772 0 .433-.124.897-.284 1.057-.157.156-.285.614-.285 1.018s-.085.787-.189.851c-.112.069-.19 1.2-.19 2.75 0 1.551.078 2.681.19 2.75.104.065.189.443.189.842 0 .412.123.826.285.96.163.136.284.549.284.972 0 .404.086.735.19.735.104 0 .19.171.19.379 0 .209.085.38.189.38.105 0 .19.213.19.474s.085.474.19.474c.104 0 .189.171.189.379 0 .209.108.38.239.38s.355.265.499.59c.144.324.527.887.852 1.25 1.064 1.188 1.816 1.953 1.919 1.953.056 0 .377.277.715.616.337.339.869.745 1.182.901.313.156.611.332.664.389.35.389 1.512 1.129 1.772 1.129.173 0 .314.085.314.189 0 .105.171.19.379.19.209 0 .379.085.379.19 0 .104.214.189.475.189.26 0 .474.082.474.181 0 .099.32.32.711.49.391.17.859.388 1.041.483.181.096.496.174.7.174.204 0 .423.085.488.19.064.104.315.189.557.189.241 0 .546.128.675.285.13.156.482.284.782.284.3 0 .546.086.546.19 0 .104.251.19.558.19.307 0 .61.085.675.189.064.105.453.19.865.19.411 0 .747.085.747.19 0 .104.299.189.664.189.365 0 .664.083.664.183 0 .101.428.24.952.31.524.069.999.2 1.055.291.056.09.48.165.944.165.463 0 .842.085.842.189s.336.19.747.19.801.085.865.189c.065.105.496.19.96.19.463 0 .842.086.842.19 0 .104.203.189.451.189s.557.129.687.285c.13.156.476.284.771.284.294 0 .587.086.651.19.065.104.283.19.486.19.202 0 .368.085.368.189 0 .105.172.19.382.19.41 0 1.01.301 1.508.759.171.156.583.489.917.739.334.251.607.571.607.712 0 .14.085.256.189.256.105 0 .19.128.19.284 0 .157.085.285.19.285.104 0 .189.239.189.531 0 .292.095.625.211.741.29.291-.093 3.28-.421 3.28-.093 0-.169.091-.169.203 0 .352-2.287 2.452-2.67 2.452-.2 0-.365.085-.365.19 0 .104-.17.189-.379.189s-.379.086-.379.19c0 .104-.422.19-.937.19-.516 0-.99.085-1.055.189-.064.105-.875.19-1.801.19-.927 0-1.738-.085-1.802-.19-.065-.104-.534-.189-1.043-.189-.51 0-.979-.086-1.044-.19-.064-.104-.282-.19-.485-.19-.202 0-.368-.085-.368-.189 0-.105-.118-.19-.263-.19-.438 0-1.197-.467-1.792-1.104-.309-.332-.62-.603-.69-.603-.201 0-.669-.521-.669-.745 0-.112-.071-.203-.158-.203-.086 0-.278-.235-.426-.522-.148-.287-.376-.634-.507-.772-.13-.138-.237-.373-.237-.522 0-.149-.085-.271-.189-.271-.105 0-.19-.256-.19-.569 0-.313-.085-.569-.19-.569-.104 0-.189-.251-.189-.557 0-.307-.086-.611-.19-.675-.104-.065-.19-.622-.19-1.238 0-.949-.061-1.153-.404-1.336-.544-.292-4.428-.162-4.748.158-.163.163-1.027.234-2.851.234-1.619 0-2.618.073-2.618.19 0 .121-1.454.19-3.983.19s-3.983.069-3.983.189c0 .105-.384.19-.853.19h-.854v.854c0 .469.086.853.19.853.11 0 .19.597.19 1.411 0 .777.085 1.464.189 1.529.105.064.19.406.19.759 0 .352.085.694.19.758.104.065.189.309.189.544 0 .235.126.592.279.795.153.202.281.555.284.784.004.228.092.468.196.532.104.065.19.283.19.486 0 .202.085.368.189.368.105 0 .19.213.19.474s.085.474.19.474c.104 0 .189.131.189.291 0 .159.128.339.285.399.156.06.284.255.284.433s.171.506.38.73c.208.224.379.508.379.631 0 .122.213.421.474.662.261.242.474.508.475.591 0 .137.15.334 1.148 1.51.162.192.525.518.806.725.281.208.511.465.511.572 0 .107.227.364.505.571.278.207.614.484.746.614.131.13.335.237.451.237.117 0 .41.213.652.474.242.261.579.474.75.474.17 0 .31.086.31.19 0 .104.171.19.379.19.209 0 .38.085.38.189 0 .105.213.19.474.19.26 0 .474.085.474.19 0 .104.177.189.393.189.216 0 .521.128.677.285.157.156.449.284.65.284.202 0 .366.086.366.19 0 .104.384.19.854.19.469 0 .853.085.853.189 0 .105.299.19.664.19.365 0 .664.085.664.19s.51.189 1.151.189c.771 0 1.246.094 1.436.285.184.184.653.284 1.327.284.573 0 1.217.094 1.432.209.549.294 13.759.297 14.053.003.117-.116.667-.212 1.223-.212.724 0 1.042-.08 1.12-.284.082-.212.419-.285 1.322-.285.682 0 1.213-.083 1.213-.189 0-.105.298-.19.663-.19.366 0 .664-.085.664-.19 0-.104.299-.189.664-.189.365 0 .664-.086.664-.19 0-.104.203-.19.451-.19s.557-.128.687-.284a.878.878 0 0 1 .592-.285c.196 0 .356-.085.356-.189 0-.105.214-.19.474-.19.261 0 .475-.085.475-.19 0-.104.17-.189.379-.189s.379-.086.379-.19c0-.104.165-.19.366-.19.201 0 .533-.213.738-.474.205-.261.51-.474.678-.474.167 0 .305-.085.305-.19 0-.104.088-.189.197-.189.207 0 .465-.19 1.225-.901.252-.235.506-.427.567-.427.174 0 1.424-1.298 1.424-1.479 0-.09.195-.268.433-.395.894-.479.989-1.078 1.005-6.376.019-5.996.358-8.264 2.004-13.408.582-1.821.656-3.567.15-3.567-.097 0-.178-.213-.178-.474s-.075-.474-.168-.474c-.092 0-.3-.278-.462-.617-.162-.339-.625-.919-1.03-1.29-.405-.37-.792-.82-.861-1a.863.863 0 0 0-.425-.441c-.164-.063-.719-.531-1.233-1.039-.513-.508-1.014-.924-1.114-.924-.099 0-.296-.107-.438-.237-.377-.347-1.055-.711-1.331-.715-.132-.001-.441-.215-.686-.474-.246-.259-.609-.471-.806-.471-.198 0-.36-.085-.36-.189 0-.105-.165-.19-.368-.19-.202 0-.421-.085-.485-.19-.065-.104-.247-.189-.404-.189-.158 0-.415-.128-.572-.285-.156-.156-.491-.284-.745-.284-.253 0-.46-.086-.46-.19 0-.104-.209-.19-.463-.19-.255 0-.516-.085-.581-.189-.064-.105-.41-.19-.769-.19-.359 0-.653-.085-.653-.19 0-.104-.192-.192-.427-.195a1.605 1.605 0 0 1-.795-.285c-.202-.153-.65-.278-.995-.278-.346 0-.628-.086-.628-.19 0-.104-.251-.19-.558-.19-.307 0-.61-.085-.675-.189-.064-.105-.411-.19-.77-.19-.359 0-.652-.085-.652-.19 0-.104-.422-.189-.937-.189-.516 0-.99-.086-1.055-.19-.064-.104-.358-.19-.652-.19-.294 0-.64-.128-.77-.284-.151-.182-.57-.285-1.161-.285-.509 0-.925-.085-.925-.189s-.385-.19-.854-.19-.853-.085-.853-.19c0-.104-.465-.189-1.032-.189-.568 0-1.085-.086-1.15-.19-.064-.104-.331-.19-.593-.19-.262 0-.605-.128-.761-.284-.157-.156-.53-.284-.829-.284-.299 0-.597-.086-.662-.19-.064-.104-.282-.19-.485-.19-.202 0-.368-.069-.368-.154 0-.085-.299-.272-.664-.415-.365-.143-.664-.354-.664-.467 0-.114-.17-.331-.379-.481-.223-.161-.379-.491-.379-.801 0-.29-.086-.527-.19-.527-.104 0-.19-.165-.19-.368 0-.202.086-.421.19-.485.104-.065.19-.371.19-.681 0-.598 1.667-2.449 2.205-2.449.143 0 .26-.085.26-.189 0-.105.209-.19.463-.19.255 0 .516-.085.58-.19.07-.111 1.204-.189 2.762-.189 1.636 0 2.644.072 2.644.189 0 .105.299.19.664.19.365 0 .663.085.663.19 0 .104.171.189.38.189.208 0 .379.08.379.177 0 .097.191.238.423.311.505.161 2.612 2.32 2.612 2.677 0 .137.085.249.189.249.105 0 .19.166.19.368 0 .203.085.421.19.486.104.064.189.368.189.675 0 .307.086.558.19.558.104 0 .19.298.19.663 0 .464.086.664.284.664.158 0 .285.169.285.38 0 .295.126.379.569.379.313 0 .569-.086.569-.19 0-.118 1.106-.189 2.939-.189 1.834 0 2.94-.072 2.94-.19 0-.121 1.64-.19 4.541-.19 2.823 0 4.585-.072 4.658-.189.064-.105.795-.19 1.623-.19h1.506v-1.517c0-.886-.079-1.518-.189-1.518-.105 0-.19-.421-.19-.937 0-.515-.085-.99-.19-1.054-.104-.065-.189-.363-.189-.664 0-.301-.086-.599-.19-.664-.104-.064-.19-.277-.19-.472 0-.195-.128-.482-.284-.639-.157-.156-.285-.504-.285-.772s-.085-.488-.189-.488c-.105 0-.19-.128-.19-.284 0-.157-.085-.285-.19-.285-.104 0-.189-.115-.189-.255 0-.359-.565-1.452-.751-1.452-.085 0-.287-.28-.45-.622-.364-.769-.953-1.464-1.24-1.464-.118 0-.215-.088-.215-.196 0-.204-1.232-1.511-1.424-1.511-.061 0-.315-.192-.566-.427-.761-.711-1.019-.901-1.226-.901a.193.193 0 0 1-.197-.189c0-.105-.171-.19-.38-.19-.208 0-.379-.085-.379-.19 0-.104-.162-.189-.359-.189-.198 0-.408-.128-.468-.285-.06-.156-.283-.284-.495-.284-.212 0-.385-.086-.385-.19 0-.104-.213-.189-.474-.189s-.474-.086-.474-.19c0-.104-.209-.19-.463-.19-.255 0-.516-.085-.581-.189-.064-.105-.374-.19-.688-.19-.314 0-.699-.128-.856-.285-.156-.156-.577-.284-.935-.284-.357 0-.65-.085-.65-.19 0-.107-.537-.189-1.233-.189-.695 0-1.233-.083-1.233-.19 0-.11-.596-.19-1.411-.19-.776 0-1.464-.085-1.528-.189-.074-.12-2.18-.19-5.69-.19-3.511 0-5.616.07-5.69.19ZM4.548 1.264c-.158.158-.169 64.786-.012 65.197.103.269 1.2.3 10.432.3h10.316V40.588h1.707c1.012 0 1.707.077 1.707.189 0 .105.256.19.569.19.313 0 .569.086.569.19 0 .104.152.189.337.189.186 0 .468.15.628.332.16.183.606.598.991.923.384.324.699.687.699.806 0 .118.086.215.19.215.104 0 .19.088.19.194 0 .23.981 1.77 1.185 1.861.078.035.142.227.142.427 0 .2.07.363.155.363.085 0 .271.299.414.664.144.365.33.664.415.664.085 0 .154.171.154.379 0 .211.127.38.285.38.177 0 .284.179.284.474 0 .261.086.474.19.474.104 0 .19.171.19.379 0 .209.085.38.189.38.105 0 .19.121.19.269 0 .338.615 1.435.806 1.436.078.001.142.13.142.286 0 .157.086.285.19.285.104 0 .19.111.19.246 0 .349.446 1.268.616 1.269.078.001.142.123.142.271 0 .339.616 1.435.806 1.437.079 0 .143.167.143.369 0 .203.085.421.189.485.105.065.19.283.19.486 0 .202.075.368.167.368.091 0 .278.277.415.616.136.339.445.881.687 1.204.241.322.438.728.438.9 0 .173.085.314.19.314.104 0 .189.171.189.38 0 .208.076.379.169.379.093 0 .223.214.288.474.066.261.203.474.306.474.102 0 .186.171.186.38 0 .208.064.379.142.38.078 0 .355.469.616 1.042.261.573.529 1.042.596 1.043.067 0 .175.214.241.475.065.26.202.474.305.474.102 0 .186.17.186.379 0 .375.126.379 11.854.379h11.854v-.669c0-.421-.106-.711-.285-.779-.156-.06-.284-.314-.284-.563 0-.25-.065-.454-.144-.454-.078 0-.256-.278-.395-.617-.479-1.172-.664-1.47-.916-1.47-.15 0-.252-.215-.252-.533 0-.293-.171-.716-.379-.94-.209-.224-.38-.534-.38-.689 0-.154-.085-.334-.189-.398-.105-.064-.19-.283-.19-.485 0-.203-.066-.368-.147-.368-.081 0-.316-.384-.522-.852-.206-.469-.438-.853-.517-.854-.078-.001-.142-.172-.142-.381 0-.208-.085-.379-.189-.379-.105 0-.19-.213-.19-.474s-.085-.474-.19-.474c-.104 0-.189-.131-.189-.291a.466.466 0 0 0-.285-.399c-.156-.061-.284-.314-.284-.564 0-.249-.086-.453-.19-.453-.104 0-.19-.171-.19-.38 0-.208-.085-.379-.189-.379-.105 0-.19-.115-.19-.255 0-.333-.559-1.452-.725-1.453-.071 0-.342-.469-.603-1.042-.261-.573-.538-1.042-.616-1.043-.078 0-.142-.201-.142-.447 0-.245-.214-.676-.475-.958-.26-.281-.474-.636-.474-.789 0-.327-.341-.955-.806-1.483-.182-.208-.332-.444-.332-.525 0-.082-.298-.447-.664-.812-.365-.365-.663-.752-.663-.86a.194.194 0 0 0-.19-.196c-.104 0-.19-.107-.19-.238 0-.132-.297-.495-.659-.806-.363-.312-.662-.654-.664-.76-.002-.105-.231-.361-.508-.569a15.684 15.684 0 0 1-1.063-.898c-.308-.287-.679-.522-.824-.522-.146 0-.265-.085-.265-.189 0-.105-.17-.19-.379-.19s-.379-.085-.379-.19c0-.104-.166-.189-.368-.189-.203 0-.421-.086-.486-.19-.064-.104-.29-.19-.501-.19-.591 0-.308-.465.326-.536.305-.034.636-.141.735-.237.099-.096.419-.175.711-.175s.531-.085.531-.19c0-.104.171-.189.379-.189.209 0 .38-.086.38-.19 0-.104.16-.19.356-.19.196 0 .448-.11.56-.245.112-.135.506-.365.876-.51.371-.145.673-.333.673-.418 0-.085.121-.154.269-.154.147 0 .575-.299.951-.664.376-.365.728-.664.782-.664.183 0 1.412-1.315 1.412-1.511 0-.108.097-.196.215-.196.279 0 1.053-.896 1.352-1.565.128-.287.297-.521.376-.521.079 0 .144-.128.144-.285 0-.156.173-.458.385-.67.212-.211.436-.638.498-.948.062-.31.187-.563.278-.563.092 0 .166-.213.166-.474s.086-.474.19-.474c.104 0 .19-.384.19-.854 0-.632.073-.853.284-.853.21 0 .285-.22.285-.843 0-.463.085-.895.189-.959.115-.071.19-1.421.19-3.414s-.075-3.343-.19-3.414c-.104-.064-.189-.456-.189-.871 0-.494-.098-.79-.285-.862-.193-.074-.284-.377-.284-.942 0-.459-.086-.834-.19-.834-.104 0-.19-.213-.19-.474s-.085-.474-.189-.474c-.105 0-.19-.172-.19-.382 0-.445-.37-1.164-.711-1.382a.565.565 0 0 1-.237-.427c0-.151-.086-.275-.19-.275-.104 0-.19-.17-.19-.379s-.085-.379-.189-.379a.19.19 0 0 1-.19-.191c0-.229-2.564-2.844-2.788-2.844-.086 0-.317-.213-.513-.474s-.472-.474-.614-.474c-.142 0-.258-.086-.258-.19 0-.104-.128-.19-.284-.19-.157 0-.285-.085-.285-.189 0-.105-.165-.19-.368-.19-.202 0-.421-.085-.485-.19-.065-.104-.246-.189-.404-.189-.158 0-.415-.128-.572-.285-.156-.156-.444-.284-.639-.284s-.407-.086-.471-.19c-.065-.104-.454-.189-.865-.189s-.748-.086-.748-.19c0-.104-.384-.19-.853-.19s-.854-.085-.854-.189c0-.114-.731-.19-1.815-.19-1.361 0-1.886-.071-2.1-.285-.299-.299-40.611-.455-40.908-.158ZM306.65 3.983c-.073.118.282.189.937.189.58 0 1.054-.085 1.054-.189 0-.105-.421-.19-.937-.19-.515 0-.99.085-1.054.19Zm9.009 0c0 .104.474.189 1.054.189.655 0 1.01-.071.937-.189-.064-.105-.539-.19-1.054-.19s-.937.085-.937.19Zm-11.38.379c0 .104.256.19.569.19.313 0 .569-.086.569-.19 0-.104-.256-.19-.569-.19-.313 0-.569.086-.569.19Zm14.604 0c0 .104.277.188.616.187.468-.002.548-.047.332-.187-.372-.241-.948-.241-.948 0Zm-17.293.515c-.158.191-.057.244.464.244.421 0 .708-.106.777-.287.14-.365-.934-.327-1.241.043Zm19.69-.194c-.269.269-.09.438.464.438.359 0 .556-.085.511-.22-.082-.247-.788-.404-.975-.218Zm-21.363.627c0 .105.213.19.474.19s.474-.085.474-.19c0-.104-.213-.189-.474-.189s-.474.085-.474.189Zm23.139 0c0 .105.128.19.284.19.157 0 .285-.085.285-.19 0-.104-.128-.189-.285-.189-.156 0-.284.085-.284.189Zm-24.751.38c-.069.11.124.189.463.189.319 0 .58-.085.58-.189 0-.105-.209-.19-.463-.19-.255 0-.516.085-.58.19Zm26.078 0c0 .104.214.189.474.189.261 0 .475-.085.475-.189 0-.105-.214-.19-.475-.19-.26 0-.474.085-.474.19Zm-27.311.379c0 .104.17.19.379.19s.379-.086.379-.19c0-.104-.17-.19-.379-.19s-.379.086-.379.19Zm-1.243.396c-.059.095.125.173.41.173.284 0 .457-.059.385-.132-.207-.207-.678-.231-.795-.041Zm-1.139.452c-.353.266-.346.278.153.284.34.004.522-.093.522-.278 0-.359-.206-.361-.675-.006Zm33.107-.001c0 .165.165.291.38.291.208 0 .379-.04.379-.088 0-.049-.171-.18-.379-.291-.303-.162-.38-.144-.38.088Zm-34.139.481c0 .104.128.189.284.189.157 0 .285-.085.285-.189 0-.105-.128-.19-.285-.19-.156 0-.284.085-.284.19Zm-1.233.379c-.066.108.093.19.368.19.267 0 .486-.086.486-.19 0-.104-.166-.19-.369-.19-.202 0-.42.086-.485.19Zm37.079 0c0 .104.192.188.427.187.345-.003.372-.038.142-.187-.367-.238-.569-.238-.569 0Zm-38.644.695c-.371.15-.277.443.143.443.21 0 .379-.126.379-.284 0-.293-.109-.326-.522-.159Zm40.444.067c-.174.281-.009.424.396.345.296-.057.299-.088.032-.31-.214-.177-.334-.187-.428-.035Zm-41.439.566c0 .104.128.189.284.189.157 0 .285-.085.285-.189 0-.105-.128-.19-.285-.19-.156 0-.284.085-.284.19Zm42.295-.082c0 .201.539.651.78.651.137 0 .064-.164-.168-.38-.409-.381-.612-.471-.612-.271Zm-44.002.84c0 .105.128.19.284.19.157 0 .285-.085.285-.19 0-.104-.128-.189-.285-.189-.156 0-.284.085-.284.189Zm45.14 0c0 .105.128.19.284.19.156 0 .284.128.284.285 0 .156.086.284.19.284.304 0 .219-.41-.142-.684-.4-.304-.616-.33-.616-.075Zm1.232.949c-.064.104-.023.189.092.189.115 0 .391.17.614.378.222.207.449.332.504.277.096-.095-.812-1.034-1.001-1.034-.05 0-.144.085-.209.19Zm-50.545 1.707c0 .104-.128.189-.284.189-.157 0-.285.086-.285.19 0 .276.364.232.677-.081.318-.318.346-.488.082-.488a.19.19 0 0 0-.19.19Zm52.726-.086c0 .151.511.655.664.655.156 0 .664.504.664.659 0 .197.965 1.094 1.067.992.121-.121-1.378-1.752-1.96-2.134-.239-.157-.435-.234-.435-.172Zm-54.147 1.033c-.19.209-.283.38-.207.38.2 0 .741-.571.638-.674-.048-.048-.242.085-.431.294Zm-1.775 1.253c-.346.391-.123.577.247.207.162-.162.294-.343.294-.402 0-.199-.282-.097-.541.195Zm-244.125.645c0 .104.343.189.761.189.419 0 .91.073 1.091.162.181.089.671.323 1.088.519.417.196.896.508 1.065.692.169.184.367.334.44.334.275 0 .676.556.676.935 0 .216.085.393.19.393.104 0 .189.256.189.569 0 .313.086.569.19.569.108 0 .19.569.19 1.328 0 .758-.082 1.327-.19 1.327-.104 0-.19.24-.19.533 0 .294-.17.717-.379.941-.209.224-.379.457-.379.518 0 .446-2.002 1.801-2.661 1.801-.206 0-.374.086-.374.19 0 .104-.41.19-.912.19-.508 0-1.075.123-1.28.278-.237.179-.825.281-1.649.285-.723.003-1.28.088-1.28.195 0 .121-1.454.19-3.983.19h-3.983V15.173h5.69c3.667 0 5.69.067 5.69.19Zm303.082.482c0 .2.934 1.035 1.158 1.035.124 0-.042-.256-.369-.569-.58-.554-.789-.677-.789-.466Zm-60.882.422c0 .08-.224.282-.498.448-.317.193-.421.35-.285.435.118.072.214.041.214-.069 0-.111.092-.201.203-.201.214 0 .745-.464.745-.65 0-.06-.085-.109-.189-.109-.105 0-.19.066-.19.146Zm-1.578 1.589c-.295.317-.492.621-.438.674.139.14 1.108-.868 1.034-1.077-.033-.096-.302.085-.596.403Zm64.167.075c0 .057.171.286.379.51.216.232.38.304.38.168 0-.131-.122-.361-.271-.51-.278-.278-.488-.35-.488-.168Zm.759 1.32c0 .174.091.285.204.248.112-.038.203-.149.203-.248s-.091-.211-.203-.248c-.113-.038-.204.074-.204.248Zm.948 1.422c0 .209.085.38.19.38.104 0 .189.128.189.284 0 .156.086.284.19.284.104 0 .19-.08.19-.178 0-.098-.086-.231-.19-.296-.104-.064-.19-.283-.19-.485s-.085-.368-.189-.368c-.105 0-.19.171-.19.379Zm-69.796 1.138c-.261.307-.56.56-.666.563-.233.007-.727.763-.589.901.098.098 2.014-1.742 2.014-1.934 0-.243-.323-.043-.759.47Zm38.412-.374c-4.574.802-10.543 5.255-12.383 9.239-.781 1.689-.756 4.786.05 6.386 2.407 4.774 6.801 5.475 14.699 2.343 4.554-1.807 7.019-1.291 6.79 1.421-.324 3.856-4.797 5.159-8.33 2.426l-.497-.384-3.154 2.476c-3.498 2.745-3.434 2.649-2.452 3.659 4.096 4.218 9.428 4.017 15.98-.603 6.148-4.334 7.856-10.53 4.233-15.352-2.969-3.951-7.061-4.146-15.3-.726-3.9 1.619-5.014 1.584-5.342-.166-.525-2.799 3.957-4.906 6.349-2.983.855.687.614.8 4.093-1.922 3.345-2.616 3.269-2.522 2.608-3.217-1.92-2.018-4.814-3.041-7.344-2.597Zm32.143.848c0 .157.085.285.189.285.105 0 .19-.128.19-.285 0-.156-.085-.284-.19-.284-.104 0-.189.128-.189.284Zm.471.669c-.077.125-.023.3.121.39.315.196.485-.152.209-.428-.126-.126-.236-.114-.33.038Zm.477 1.217c0 .267.085.485.19.485.104 0 .189-.166.189-.368 0-.202-.085-.421-.189-.485-.108-.067-.19.092-.19.368Zm-74.317.817c-.327.391-.596.797-.597.901-.002.104.199-.045.446-.332.247-.287.545-.522.664-.522.118 0 .215-.17.215-.379 0-.509-.039-.491-.728.332Zm74.696.427c0 .208.086.379.19.379.104 0 .19-.171.19-.379 0-.209-.086-.38-.19-.38-.104 0-.19.171-.19.38Zm-75.812 1.215c-.232.241-.367.494-.301.56.21.209.438.132.438-.147 0-.148.098-.302.218-.342a.228.228 0 0 0 .142-.292c-.046-.134-.24-.048-.497.221Zm76.192-.066c0 .215.085.338.189.273.105-.064.19-.24.19-.39 0-.151-.085-.274-.19-.274-.104 0-.189.176-.189.391Zm-77.068 1.283c-.358.396-.401.602-.125.602.104 0 .189-.121.189-.268a.4.4 0 0 1 .237-.354c.131-.046.187-.139.126-.206-.062-.067-.254.034-.427.226Zm77.447.128c0 .321.087.477.237.427.13-.044.237-.236.237-.427s-.107-.383-.237-.427c-.15-.05-.237.107-.237.427Zm.569 2.087c0 .26.085.474.19.474.104 0 .189-.214.189-.474 0-.261-.085-.475-.189-.475-.105 0-.19.214-.19.475Zm.379 2.169c0 .542.087.96.199.96.23 0 .189-1.679-.045-1.824-.085-.052-.154.337-.154.864Zm-80.796-.273c0 .157.085.285.189.285.105 0 .19-.128.19-.285 0-.156-.085-.284-.19-.284-.104 0-.189.128-.189.284Zm-.949 1.707c0 .157.128.285.285.285a.285.285 0 1 0-.285-.285Zm-.758 1.791c0 .202.085.421.189.485.108.067.19-.093.19-.368 0-.267-.085-.485-.19-.485-.104 0-.189.165-.189.368Zm23.094 1.955c-1.849 1.278-3.402 2.427-3.452 2.554-.05.127.783 1.45 1.851 2.94 10.262 14.32 10.197 14.209 9.325 15.894-1.029 1.99-3.248 1.912-5.048-.178l-.808-.938-.864.73c-.476.402-1.885 1.704-3.133 2.893l-2.268 2.163.941 1.006c2.838 3.039 6.645 4.176 9.955 2.976 7.095-2.574 11.164-8.358 9.463-13.45-.639-1.91-1.873-4.241-3.324-6.277-1.529-2.147-1.767-2.484-5.288-7.515-3.11-4.446-3.616-5.11-3.893-5.118-.053-.002-1.608 1.042-3.457 2.32Zm59.859-.237c0 1.095.031 1.543.069.996.039-.548.039-1.444 0-1.992-.038-.547-.069-.099-.069.996Zm-83.333-.759c0 .209.086.38.19.38.104 0 .19-.171.19-.38 0-.208-.086-.379-.19-.379-.104 0-.19.171-.19.379Zm82.883 5.69c0 .522.086.948.19.948.104 0 .19-.426.19-.948 0-.521-.086-.948-.19-.948-.104 0-.19.427-.19.948Zm-.379 2.466c0 .313.085.569.19.569.104 0 .189-.256.189-.569 0-.313-.085-.569-.189-.569-.105 0-.19.256-.19.569Zm-.569 2.283c0 .501.047.569.266.387.307-.255.279-.813-.046-.921-.137-.046-.22.156-.22.534Zm-.379 1.32c0 .209.085.38.189.38.105 0 .19-.171.19-.38 0-.208-.085-.379-.19-.379-.104 0-.189.171-.189.379Zm-.38 1.613c0 .26.086.474.19.474.104 0 .19-.214.19-.474 0-.261-.086-.475-.19-.475-.104 0-.19.214-.19.475Zm-.376 1.28c.002.345.038.372.187.142.237-.368.237-.569 0-.569-.105 0-.189.192-.187.427Zm-.536 1.105c.038.112.149.203.248.203.1 0 .211-.091.249-.203.037-.113-.075-.204-.249-.204-.173 0-.285.091-.248.204Zm-.178.68c-.268.108-.328.823-.07.823.092 0 .209-.214.258-.475.05-.26.082-.467.07-.459a4.401 4.401 0 0 1-.258.111Zm-.996 2.351c0 .215.085.338.19.273.104-.064.189-.24.189-.39 0-.15-.085-.273-.189-.273-.105 0-.19.175-.19.39Zm-.948 1.814c0 .252.051.265.284.072.157-.13.285-.269.285-.308 0-.04-.128-.072-.285-.072-.156 0-.284.139-.284.308Zm-.759 1.494c0 .156.085.285.19.285.104 0 .189-.129.189-.285 0-.156-.085-.284-.189-.284-.105 0-.19.128-.19.284Zm-80.035.506c.002.243.086.57.187.727.143.222.184.169.187-.237.001-.287.009-.584.017-.659.007-.076-.078-.168-.19-.206-.112-.037-.203.131-.201.375Zm79.087.916c0 .355.05.405.227.228.177-.177.177-.278 0-.455s-.227-.127-.227.227Zm-78.636.869c.063.165.115.336.115.38 0 .043.085.079.19.079.104 0 .189-.171.189-.379 0-.222-.126-.38-.304-.38-.2 0-.266.104-.19.3Zm77.735.743c-.131.148-.237.358-.237.467 0 .358.28.203.503-.278.241-.518.107-.613-.266-.189Zm-77.241 1.044c0 .208.086.379.19.379.104 0 .19-.171.19-.379 0-.209-.086-.38-.19-.38-.104 0-.19.171-.19.38Zm76.273.304c-.345.391-.123.576.248.206.161-.161.293-.342.293-.402 0-.199-.282-.097-.541.196Zm-75.893.929c0 .26.085.474.189.474.105 0 .19-.214.19-.474 0-.261-.085-.475-.19-.475-.104 0-.189.214-.189.475Zm74.917.663c0 .105-.128.19-.285.19-.156 0-.284.085-.284.19 0 .329.468.205.714-.19.141-.225.159-.379.046-.379a.19.19 0 0 0-.191.189Zm-74.406.454c-.077.198-.096.404-.042.459.173.173.326-.111.253-.471-.066-.33-.076-.329-.211.012Zm73.457.394c0 .169.112.236.284.17.156-.06.236-.185.178-.279-.165-.268-.462-.198-.462.109Zm-73.078.601c-.152.152.02.448.259.448.098 0 .178-.128.178-.284 0-.294-.223-.377-.437-.164Zm72.13.827c-.15.209-.382.38-.516.38-.133 0-.243.096-.243.215 0 .118-.184.374-.409.57-.226.195-.359.406-.296.469.11.11 2.033-1.697 2.033-1.909 0-.232-.312-.081-.569.275Zm-71.693.152c0 .275.472 1.173.617 1.175.078 0 .142-.127.142-.283 0-.157-.085-.285-.19-.285-.104 0-.189-.171-.189-.379 0-.209-.086-.38-.19-.38-.104 0-.19.069-.19.152Zm1.269 2.446c-.055.088.107.344.359.569.252.224.459.326.459.225 0-.287-.707-.973-.818-.794Zm65.233 2.539c-.967.979-.538.964.472-.016.43-.417.665-.751.522-.743-.143.009-.59.35-.994.759Zm-63.657.06c0 .042.299.375.664.74.379.379.664.55.664.398 0-.146-.085-.265-.19-.265-.104 0-.189-.098-.189-.217 0-.118-.15-.329-.332-.468-.327-.248-.617-.336-.617-.188Zm62.406 1.2c-.249.28-.242.3.063.183.187-.072.377-.131.42-.131.044 0 .08-.085.08-.19 0-.279-.246-.218-.563.138Zm-61.078.524c0 .195 4.022 4.104 4.121 4.005.057-.057-.164-.354-.491-.659-.328-.306-.595-.65-.595-.765 0-.114-.089-.208-.196-.208-.255 0-1.511-1.256-1.511-1.511 0-.108-.11-.196-.243-.196s-.366-.171-.516-.379c-.251-.349-.569-.509-.569-.287Zm60.123.097c0 .104-.091.19-.203.19-.271 0-.745.486-.745.763 0 .122.292-.021.65-.318.664-.552.826-.825.488-.825a.191.191 0 0 0-.19.19Zm-2.437 1.821c-.141.16-.193.349-.116.42.077.071.178.023.224-.107a.397.397 0 0 1 .354-.237c.147 0 .268-.086.268-.19 0-.284-.439-.215-.73.114Zm-1.261.936c-.209.255-.524.464-.7.465-.177.001-.374.088-.438.192-.065.104-.245.19-.401.19-.156 0-1.083.469-2.059 1.044-2.647 1.558-6.408 3.293-8.92 4.115-2.229.729-4.184 1.31-4.931 1.466-4.976 1.034-6.108 1.171-10.85 1.314l-4.021.121-.667.664c-.366.365-.669.728-.672.806-.004.078-.348.494-.765.924-.417.43-.759.85-.759.935 0 .084-.123.276-.274.427-.349.349-1.053 1.596-1.053 1.865 0 .112-.214.372-.475.577-.26.205-.474.478-.474.606 0 .338-.449 1.254-.616 1.255-.078.001-.142.253-.142.56 0 .306-.086.61-.19.675-.104.064-.19.273-.19.465 0 .191-.128.397-.284.457-.157.06-.285.32-.285.578 0 .258-.085.522-.189.586-.105.064-.19.411-.19.77 0 .359-.085.652-.19.652-.104 0-.189.294-.189.653 0 .359-.086.705-.19.77-.104.064-.19.615-.19 1.224 0 .808-.076 1.136-.284 1.215-.209.081-.285.41-.285 1.242 0 .623-.085 1.186-.189 1.25-.12.074-.19 2.338-.19 6.164 0 3.827.07 6.09.19 6.164.104.065.189.585.189 1.155 0 .748.08 1.069.285 1.148.212.081.284.418.284 1.321 0 .682.083 1.213.19 1.213.104 0 .19.298.19.664 0 .365.085.663.189.663.105 0 .19.294.19.653 0 .359.085.705.19.77.104.064.189.328.189.586 0 .258.128.518.285.578.156.06.284.266.284.457s.086.401.19.465c.104.065.19.368.19.675 0 .307.085.558.189.558.105 0 .19.171.19.379 0 .209.085.38.19.38.104 0 .189.127.189.284 0 .156.299.7.664 1.208.365.508.664.999.664 1.091 0 .144.279.52 1.134 1.534.107.126.194.284.194.35 0 .067.256.361.569.654.313.292.571.603.574.692.006.201 1.436 1.773 1.612 1.773.071 0 .298.214.503.474.205.261.453.474.551.474.099 0 .574.385 1.057.854s.994.853 1.136.853c.141 0 .256.071.256.158 0 .087.235.277.522.423.287.146.786.459 1.109.696.322.237.685.43.806.43.12 0 .219.086.219.19 0 .104.165.19.368.19.202 0 .421.085.485.189.065.105.283.19.486.19.202 0 .368.085.368.19 0 .104.196.189.436.189s.536.1.658.222c.263.263 1.517.72 1.988.724.182.001.332.088.332.192 0 .105.379.19.842.19.463 0 .895.085.959.19.065.104.39.192.723.195.333.004.771.132.973.285.245.185.828.278 1.739.278.918 0 1.396.078 1.448.234.114.342 14.055.345 14.397.003.139-.139.73-.237 1.438-.237.892 0 1.229-.073 1.31-.284.074-.193.376-.285.942-.285.458 0 .833-.085.833-.189 0-.105.337-.19.748-.19s.8-.085.864-.19c.065-.104.326-.189.581-.189.254 0 .463-.086.463-.19 0-.104.216-.19.48-.19s.529-.128.589-.284c.06-.157.34-.285.622-.285s.696-.17.92-.379c.224-.209.522-.379.662-.379.355 0 1.275-.444 1.277-.617.001-.078.116-.142.256-.142.141 0 .503-.213.807-.474.303-.26.657-.474.788-.474.13 0 .237-.086.237-.19 0-.104.108-.19.239-.19.132 0 .4-.213.596-.474.196-.26.472-.474.614-.474.142 0 .258-.085.258-.19 0-.104.089-.189.198-.189.257 0 1.129-.872 1.129-1.13 0-.109.113-.198.251-.198s.586-.394.996-.876a35.436 35.436 0 0 1 1.456-1.598c.391-.396.711-.836.711-.978 0-.141.171-.38.38-.531.208-.15.379-.416.379-.59a.49.49 0 0 1 .284-.427c.157-.06.285-.263.285-.452s.171-.467.379-.617c.209-.15.38-.468.38-.706 0-.238.085-.432.189-.432.105 0 .19-.162.19-.359 0-.198.128-.408.284-.468.25-.096.285.821.285 7.566v7.675h51.778v-16.88h-30.725V77.959l-.427-.104c-.235-.057-4.95-.08-10.479-.051l-10.052.053-.05 7.835c-.044 6.938-.082 7.802-.332 7.552-.155-.155-.282-.416-.282-.58 0-.164-.085-.298-.19-.298-.104 0-.189-.195-.189-.432 0-.238-.171-.556-.38-.706-.208-.15-.379-.428-.379-.617s-.128-.392-.285-.452a.49.49 0 0 1-.284-.427c0-.174-.171-.44-.379-.59-.209-.151-.38-.383-.38-.516 0-.134-.085-.243-.189-.243-.105 0-.19-.116-.19-.258 0-.142-.213-.418-.474-.614s-.474-.424-.474-.507c0-.222-1.282-1.466-1.511-1.466a.196.196 0 0 1-.196-.196c0-.204-1.233-1.511-1.424-1.511-.122 0-.459-.267-1.137-.901-.251-.235-.546-.427-.655-.427a.194.194 0 0 1-.198-.189c0-.105-.171-.19-.38-.19-.208 0-.379-.085-.379-.19 0-.104-.107-.189-.239-.189-.131 0-.469-.214-.75-.474-.282-.261-.643-.475-.804-.475-.161 0-.293-.085-.293-.189 0-.105-.214-.19-.474-.19-.261 0-.475-.085-.475-.19 0-.104-.134-.189-.298-.189-.163 0-.426-.128-.582-.285-.157-.156-.492-.284-.745-.284-.254 0-.461-.086-.461-.19 0-.104-.165-.19-.368-.19-.202 0-.421-.085-.485-.189-.065-.104-.454-.19-.865-.19s-.747-.085-.747-.189c0-.105-.263-.19-.583-.19-.32 0-.711-.128-.867-.285-.166-.166-.629-.284-1.113-.284-.456 0-.882-.085-.946-.19-.065-.104-.542-.189-1.061-.189-1.122 0-1.402-.37-.714-.943.309-.257.359-.372.163-.37-.157.001-.456.211-.664.466Zm-297.677.273c-.156.103-1.239.19-2.407.191-1.207.002-2.173.085-2.24.193-.064.104-.581.19-1.149.19-.567 0-1.032.075-1.032.166 0 .092-.528.205-1.174.252-.659.048-1.207.183-1.249.308-.041.122-.366.222-.722.222s-.648.085-.648.19c0 .104-.341.189-.759.189-.417 0-.758.086-.758.19 0 .104-.129.189-.287.189-.265 0-.703.187-1.42.604a4.02 4.02 0 0 1-.617.278c-.182.061-.332.186-.332.279 0 .092-.213.167-.474.167-.26 0-.474.085-.474.19 0 .104-.15.189-.334.189-.184 0-.495.214-.691.475-.195.26-.471.474-.612.474-.351 0-3.974 3.624-4.137 4.138-.072.228-.211.414-.308.414s-.177.121-.177.268c0 .148-.072.298-.161.332-.258.102-1.166 1.845-1.166 2.24 0 .199-.086.414-.19.479-.104.064-.19.325-.19.58 0 .255-.085.463-.189.463-.105 0-.19.292-.19.648 0 .356-.107.683-.237.727-.394.131-.449 8.155-.058 8.479.162.135.295.533.295.885s.085.641.19.641c.104 0 .189.208.189.463 0 .254.086.515.19.58.104.064.19.325.19.58 0 .255.064.464.142.465.078.001.305.343.505.759.199.416.434.756.521.756.088 0 .159.086.159.192 0 .197.79 1.164 1.375 1.684.183.162.332.363.332.445 0 .19 1.178 1.27 1.394 1.277.089.003.4.262.693.575.292.313.588.569.658.569.07 0 .246.107.392.237.657.59.849.711 1.123.711.161 0 .292.086.292.19 0 .104.128.19.285.19.156 0 .284.085.284.189 0 .105.115.19.255.19.327 0 1.41.537 1.554.771.061.097.318.177.573.177.255 0 .463.086.463.19 0 .104.166.19.368.19.203 0 .421.085.486.189.064.105.282.19.485.19.202 0 .368.085.368.19 0 .104.29.189.644.189.397 0 .685.109.752.285.06.156.278.284.484.284.205 0 .426.086.491.19.064.104.411.19.77.19.359 0 .652.085.652.189 0 .105.299.19.664.19.365 0 .664.085.664.19 0 .104.347.189.772.189.434 0 .897.125 1.057.285.156.156.529.284.829.284.299 0 .597.086.661.19.065.104.491.189.948.189.457 0 .884.086.949.19.064.104.448.19.853.19.405 0 .789.085.854.189.064.105.453.19.864.19s.748.086.748.19c0 .104.332.189.738.189.482 0 .777.1.848.285.06.156.32.284.578.284.258 0 .521.086.586.19.064.104.411.19.77.19.359 0 .653.064.654.142.002.192.94.616 1.364.616.188 0 .341.121.341.269 0 .148.256.382.569.521.313.138.569.316.569.395 0 .079.113.143.25.143.265 0 1.078 1.372 1.078 1.82 0 .146.085.266.19.266.104 0 .189.251.189.558 0 .307.086.611.19.675.104.065.19.326.19.58 0 .255-.086.463-.19.463-.104 0-.19.256-.19.569 0 .313-.085.569-.189.569-.105 0-.19.195-.19.433 0 .237-.171.555-.379.705-.209.151-.38.383-.38.516 0 .134-.064.245-.142.248-.078.003-.523.345-.989.759-.465.414-.999.753-1.185.753-.186 0-.339.086-.339.19 0 .104-.249.19-.553.19-.304 0-.586.098-.626.219-.102.305-6.266.3-6.368-.005-.039-.118-.277-.214-.529-.214-.253 0-.459-.086-.459-.19 0-.104-.153-.19-.341-.19-.424 0-1.362-.424-1.364-.616-.001-.078-.109-.142-.241-.142-.131 0-.494-.297-.806-.66-.312-.363-.637-.662-.723-.664-.226-.006-.697-.512-.697-.749 0-.112-.086-.203-.19-.203-.104 0-.19-.171-.19-.38 0-.208-.085-.379-.189-.379-.105 0-.19-.171-.19-.379 0-.211-.126-.38-.285-.38-.177 0-.284-.179-.284-.474 0-.261-.085-.474-.19-.474-.104 0-.189-.294-.189-.653 0-.359-.086-.705-.19-.769-.104-.065-.19-.454-.19-.865s-.085-.748-.189-.748c-.105 0-.19-.341-.19-.758 0-.741-.016-.759-.664-.759-.365 0-.664.085-.664.19 0 .12-1.454.189-3.983.189-2.528 0-3.983.07-3.983.19 0 .118-1.043.19-2.75.19s-2.75.072-2.75.189-.958.19-2.495.19H0l.12 2.499c.066 1.374.207 2.586.314 2.693.107.107.194.513.194.902s.128.835.284.991c.157.157.285.462.285.678 0 .216.085.393.19.393.104 0 .189.251.189.557 0 .307.086.611.19.675.104.065.19.283.19.486 0 .202.085.368.189.368.105 0 .19.161.19.359 0 .197.128.408.284.468.157.06.285.223.285.362 0 .354.445 1.273.616 1.275.079.001.143.093.143.204 0 .219.867 1.526 1.461 2.204.2.228.528.633.729.901.201.267.436.486.523.486.184 0 .701.486.701.659 0 .159.899 1.048 1.059 1.048.071 0 .267.156.436.347.409.463 1.966 1.36 2.362 1.36.173 0 .315.085.315.189 0 .105.128.19.285.19.156 0 .284.085.284.19 0 .104.16.189.356.189.196 0 .463.128.592.285.13.156.439.284.687.284.249 0 .451.086.451.19 0 .104.251.19.558.19.307 0 .611.085.675.189.065.105.454.19.865.19s.747.085.747.19c0 .104.331.189.736.189.422 0 .836.121.971.285.171.205.622.284 1.62.284.938 0 1.409.077 1.462.237.062.185 1.865.238 8.162.238 6.214 0 8.138-.055 8.32-.238.135-.134.707-.237 1.324-.237.713 0 1.184-.097 1.371-.284.156-.157.584-.285.95-.285.367 0 .719-.085.784-.189.064-.105.406-.19.758-.19.353 0 .695-.085.759-.19.065-.104.326-.189.58-.189.255 0 .463-.086.463-.19 0-.104.204-.19.454-.19s.503-.128.563-.284c.06-.157.325-.285.589-.285.264 0 .481-.085.481-.189 0-.105.128-.19.284-.19.156 0 .285-.085.285-.19 0-.104.165-.189.368-.189.202 0 .421-.086.485-.19.064-.104.246-.19.404-.19.158 0 .406-.106.551-.237.558-.5.834-.711.931-.711.136 0 .808-.547 1.458-1.185.292-.287.585-.522.651-.522.14 0 .885-.79 1.695-1.796.313-.39.676-.821.806-.96.13-.138.237-.311.237-.385 0-.073.155-.272.345-.44.19-.169.508-.584.705-.923.355-.61.657-.802.657-.419 0 .207.19.464.901 1.225.235.251.427.507.427.569 0 .148.898 1.043 1.048 1.043.152 0 .659.507.659.659 0 .159.899 1.048 1.06 1.048.072 0 .385.299.697.664.312.365.684.663.827.663.143 0 .261.086.261.19 0 .104.096.19.214.19.119 0 .353.155.522.345.169.19.435.404.591.476.157.072.541.295.854.495.313.2.718.369.901.377.182.008.332.099.332.203 0 .105.213.19.474.19.26 0 .474.085.474.19 0 .104.161.189.359.189.197 0 .408.128.468.285.06.156.32.284.578.284.258 0 .522.086.586.19.065.104.321.19.569.19.249 0 .505.085.569.189.065.105.449.19.854.19.405 0 .789.085.853.19.065.104.417.189.784.189.366 0 .794.128.95.285.202.201.692.284 1.678.284.942 0 1.419.077 1.472.236.115.345 14.584.346 14.699.001.052-.156.488-.237 1.282-.237.817 0 1.295-.091 1.488-.284.157-.157.547-.285.867-.285.321 0 .583-.085.583-.189 0-.105.336-.19.747-.19.412 0 .801-.085.865-.19.065-.104.326-.189.58-.189.255 0 .463-.086.463-.19 0-.104.174-.19.386-.19.211 0 .434-.128.494-.284.06-.157.297-.285.527-.285.23 0 .602-.17.826-.379.223-.209.542-.379.707-.379.308 0 .544-.157 1.354-.901.256-.235.579-.427.717-.427.139 0 .641-.373 1.117-.828.475-.456.998-.88 1.162-.943.163-.062.297-.244.297-.404 0-.16.095-.291.211-.291.29 0 2.254-2.132 2.254-2.446 0-.093.128-.217.285-.277.156-.06.284-.221.284-.358 0-.137.171-.372.38-.522.208-.15.379-.437.379-.636 0-.2.152-.501.337-.67.472-.43.991-1.281.991-1.627 0-.16.064-.292.142-.293.192-.002.616-.94.616-1.364 0-.188.086-.341.19-.341.104 0 .19-.118.19-.262 0-.143.128-.367.284-.497.157-.13.285-.482.285-.782 0-.3.085-.546.189-.546.105 0 .19-.213.19-.474s.085-.474.19-.474c.104 0 .189-.294.189-.653 0-.359.086-.705.19-.769.104-.065.19-.46.19-.879 0-.447.126-.887.305-1.066.281-.281.281-.324 0-.529-.168-.123-.305-.321-.305-.44 0-.129-.341-.216-.854-.216-.469 0-.853-.085-.853-.19 0-.104-.209-.189-.463-.189-.255 0-.516-.086-.58-.19-.065-.104-.444-.19-.842-.19-.412 0-.826-.122-.96-.284-.13-.157-.434-.285-.676-.285-.242 0-.493-.085-.557-.189-.065-.105-.363-.19-.664-.19-.301 0-.599-.085-.664-.19-.064-.104-.363-.189-.664-.189-.3 0-.599-.086-.663-.19-.065-.104-.369-.19-.675-.19-.307 0-.558-.085-.558-.189 0-.105-.344-.19-.765-.19-.504 0-.801-.097-.874-.284-.067-.176-.355-.285-.752-.285-.354 0-.644-.085-.644-.19 0-.104-.336-.189-.747-.189s-.8-.086-.865-.19c-.064-.104-.32-.19-.569-.19-.248 0-.504-.085-.569-.189-.064-.104-.358-.19-.653-.19-.295 0-.775-.123-1.066-.275-.642-.333-.776-.266-.937.467-.068.312-.203.567-.299.567-.096 0-.174.299-.174.664 0 .365-.086.663-.19.663-.104 0-.19.294-.19.653 0 .359-.085.705-.189.77-.105.064-.19.325-.19.58 0 .255-.085.463-.19.463-.104 0-.189.118-.189.261 0 .144-.128.368-.285.498a.881.881 0 0 0-.284.592c0 .196-.07.356-.155.356-.084 0-.271.299-.414.664-.144.365-.33.664-.415.664-.085 0-.154.078-.154.173 0 .405-2.197 2.672-2.59 2.672-.147 0-.316.128-.376.284-.06.157-.271.285-.469.285-.197 0-.359.085-.359.189 0 .105-.298.19-.663.19-.365 0-.664.085-.664.19 0 .104-.337.189-.748.189s-.8.086-.864.19c-.068.11-1.109.19-2.477.19-1.447 0-2.36-.074-2.36-.19 0-.104-.293-.19-.652-.19-.359 0-.706-.085-.77-.189-.065-.105-.368-.19-.675-.19-.307 0-.558-.085-.558-.19 0-.104-.162-.189-.359-.189-.198 0-.408-.128-.468-.285-.06-.156-.221-.284-.358-.284-.137 0-.372-.171-.522-.38-.15-.208-.362-.379-.47-.379-.109 0-.453-.307-.765-.682a23.343 23.343 0 0 0-1.088-1.206c-.287-.288-.522-.664-.522-.835 0-.171-.085-.312-.19-.312-.104 0-.189-.165-.189-.368 0-.202-.086-.421-.19-.485-.104-.065-.19-.321-.19-.569 0-.249-.085-.505-.189-.569-.105-.065-.19-.406-.19-.759s-.077-.689-.172-.747c-.094-.059-.233-.555-.307-1.102-.075-.548-.221-1.05-.325-1.115-.262-.167-.265-12.781-.003-13.106.108-.132.255-.603.328-1.046.073-.443.211-.853.306-.912.095-.059.173-.396.173-.748 0-.353.085-.695.19-.759.104-.065.189-.326.189-.58 0-.255.086-.463.19-.463.104 0 .19-.171.19-.38 0-.208.085-.379.189-.379a.19.19 0 0 0 .19-.189c0-.218 1.345-2.15 1.562-2.245.08-.035.145-.184.145-.332 0-.148.086-.268.191-.268.106 0 .46-.257.787-.569.328-.313.711-.569.852-.569.141 0 .256-.128.256-.285 0-.156.128-.284.285-.284.156 0 .284-.086.284-.19 0-.104.256-.19.569-.19.313 0 .569-.085.569-.189 0-.105.214-.19.474-.19.261 0 .475-.077.475-.171 0-.241 1.671-.431 3.793-.431s3.793.19 3.793.431c0 .094.214.171.474.171.261 0 .474.085.474.19 0 .104.171.189.38.189.208 0 .379.086.379.19 0 .104.107.191.237.193.131.002.578.301.994.664.416.363.864.66.996.66.131 0 .239.072.239.161 0 .088.149.337.332.553l.684.814c.194.232.473.708.619 1.059.147.351.351.637.454.637.102 0 .187.166.187.369 0 .202.085.42.189.485.105.064.19.326.19.58 0 .255.085.463.19.463.104 0 .189.171.189.379 0 .35.127.38 1.612.38.949 0 1.613-.078 1.613-.19 0-.104.336-.19.747-.19s.8-.085.865-.189c.064-.105.534-.19 1.043-.19.509 0 .979-.085 1.043-.19.065-.104.432-.192.817-.195.385-.004.866-.132 1.069-.285.202-.153.735-.278 1.185-.278.449 0 .817-.086.817-.19 0-.104.427-.19.948-.19.522 0 .949-.085.949-.189 0-.105.336-.19.747-.19s.8-.085.865-.19c.064-.104.534-.189 1.043-.189.509 0 .979-.086 1.043-.19.065-.104.398-.19.741-.19.878 0 1.44-.545 1.44-1.397 0-.379-.085-.689-.189-.689-.105 0-.19-.213-.19-.474s-.085-.474-.19-.474c-.104 0-.189-.207-.189-.459 0-.485-.565-1.624-.806-1.626-.079-.001-.143-.155-.143-.343 0-.424-.424-1.362-.616-1.364-.078-.001-.142-.132-.142-.293 0-.345-.519-1.197-.991-1.627-.185-.169-.337-.47-.337-.67 0-.199-.171-.485-.379-.636-.209-.15-.38-.425-.38-.611 0-.185-.128-.337-.284-.337-.157 0-.285-.084-.285-.187 0-.212-.417-.765-1.185-1.571-.287-.301-.522-.592-.522-.647 0-.18-2.366-2.333-2.566-2.335-.107-.001-.318-.172-.468-.381-.151-.209-.413-.379-.584-.379-.171 0-.472-.214-.667-.474-.197-.262-.549-.475-.786-.475-.236 0-.429-.085-.429-.189 0-.105-.17-.19-.379-.19s-.379-.085-.379-.19c0-.104-.118-.189-.262-.189-.143 0-.367-.128-.497-.285a.881.881 0 0 0-.592-.284c-.196 0-.356-.086-.356-.19 0-.104-.209-.19-.463-.19-.255 0-.516-.085-.581-.189-.064-.104-.41-.19-.769-.19-.359 0-.653-.085-.653-.189 0-.105-.292-.19-.648-.19-.356 0-.68-.096-.719-.214-.039-.117-.518-.256-1.063-.309-.546-.052-1.038-.169-1.094-.26-.056-.091-.566-.165-1.134-.165s-1.032-.081-1.032-.178c0-.351-7.749-.542-11.901-.293-1.07.064-1.944.196-1.944.293 0 .098-.47.178-1.043.178-.574 0-1.044.075-1.044.166 0 .092-.528.205-1.174.252-.659.048-1.207.183-1.249.308-.041.122-.365.222-.722.222-.356 0-.648.085-.648.19 0 .104-.294.189-.653.189-.358 0-.705.086-.769.19-.065.104-.326.189-.581.189-.254 0-.463.086-.463.19 0 .104-.115.19-.257.19-.379 0-4.105 1.914-4.105 2.109 0 .092-.17.167-.379.167s-.379.072-.379.16c0 .088-.375.352-.832.587-.457.235-.941.633-1.075.883-.134.251-.357.456-.495.456s-.357.171-.487.379c-.131.209-.333.38-.45.38-.116 0-.372.213-.568.474-.196.261-.464.474-.596.474-.131 0-.239.072-.239.16 0 .155-.787 1.119-1.66 2.032-.234.245-.426.578-.426.739 0 .161-.086.293-.19.293-.104 0-.19.092-.19.204 0 .111-.109.312-.242.445-.28.28-.706-.039-.706-.53 0-.404-1.311-2.81-1.729-3.172-.196-.171-.36-.428-.363-.573-.006-.27-.833-1.305-1.042-1.305-.173 0-.659-.516-.659-.7 0-.087-.228-.328-.506-.535a9.152 9.152 0 0 1-.745-.614.892.892 0 0 0-.537-.237c-.164 0-.299-.097-.299-.216 0-.292-.585-.719-.995-.727-.183-.003-.332-.07-.332-.149 0-.079-.278-.266-.617-.415-.339-.149-.729-.384-.867-.52a1.003 1.003 0 0 0-.616-.249c-.201 0-.366-.086-.366-.19 0-.104-.213-.19-.474-.19s-.474-.085-.474-.189-.299-.19-.664-.19c-.365 0-.664-.085-.664-.189 0-.105-.203-.19-.452-.19s-.697-.128-.996-.283c-.299-.156-.901-.284-1.338-.285-.437-.001-.848-.086-.912-.191-.065-.104-.582-.189-1.149-.189-.568 0-1.032-.081-1.032-.178 0-.32-9.976-.699-10.432-.396Zm198.86-.016c-.103.101-.913.228-1.8.282-2.371.146-3.603.322-3.603.515 0 .095-.363.172-.806.173-.444.001-1.051.129-1.35.285-.298.155-.704.283-.9.283-.197 0-.358.085-.358.19 0 .104-.384.189-.854.189-.469 0-.853.086-.853.19 0 .104-.166.189-.368.189-.203 0-.421.086-.486.19-.064.104-.276.19-.471.19-.195 0-.483.128-.639.284a1.107 1.107 0 0 1-.678.285c-.216 0-.393.085-.393.189 0 .105-.17.19-.379.19s-.379.085-.379.19c0 .104-.171.189-.38.189-.208 0-.379.086-.379.19 0 .104-.128.19-.285.19a.285.285 0 0 0-.284.284c0 .158-.169.285-.379.285-.209 0-.38.085-.38.189 0 .105-.17.19-.379.19s-.379.085-.379.19a.19.19 0 0 1-.189.189c-.171 0-.802.48-1.435 1.091-.135.13-.297.237-.36.237-.258 0-4.086 3.991-4.086 4.26 0 .16-.085.292-.189.292a.186.186 0 0 0-.19.181c0 .1-.192.39-.427.646-.696.758-.901 1.042-.901 1.251a.194.194 0 0 1-.189.198c-.104 0-.19.171-.19.379 0 .209-.085.38-.19.38-.104 0-.189.161-.189.359 0 .197-.127.407-.282.467-.247.095-.289-.814-.332-7.14l-.05-7.247-10.052-.053c-5.529-.029-10.244-.006-10.479.051l-.427.104v22.752h-20.863V89.352c0-10.184-.031-11.372-.3-11.475-.39-.15-19.766-.146-20.326.004l-.426.115v65.389h21.052v-26.173h20.863v26.173h21.053v-7.23c0-6.406.032-7.204.284-6.994.157.129.285.353.285.497 0 .144.069.261.154.261.085 0 .272.299.415.664.143.365.309.664.368.664.06 0 .222.256.36.569.139.313.352.569.474.569s.339.264.482.587c.297.67 2.69 3.206 3.025 3.206.122 0 .222.088.222.196 0 .204 1.232 1.511 1.424 1.511.122 0 .459.267 1.137.901.251.235.6.427.775.427.175 0 .456.156.625.347.409.463 1.967 1.36 2.362 1.36.173 0 .315.085.315.189 0 .105.214.19.474.19.261 0 .475.085.475.19 0 .104.134.189.298.189.164 0 .426.128.582.285.157.156.492.284.745.284.254 0 .461.086.461.19 0 .104.251.19.558.19.306 0 .61.085.675.189.064.105.496.19.959.19.463 0 .843.085.843.19 0 .104.277.192.616.195.339.004.782.132.984.285.239.181.816.278 1.644.278.847 0 1.302.079 1.354.236.115.343 14.243.344 14.586.001.139-.138.726-.237 1.418-.237.798 0 1.274-.092 1.466-.284.157-.157.547-.285.867-.285.321 0 .583-.085.583-.189 0-.105.384-.19.853-.19.47 0 .854-.085.854-.19 0-.104.251-.189.558-.189.306 0 .61-.086.675-.19.064-.104.276-.19.471-.19.195 0 .483-.128.639-.284.157-.157.462-.285.678-.285.216 0 .393-.085.393-.189 0-.105.17-.19.379-.19s.379-.085.379-.19c0-.104.175-.189.388-.189.213 0 .49-.087.616-.193.474-.397 1.675-1.135 1.85-1.135a.186.186 0 0 0 .181-.19c0-.104.128-.189.284-.189.157 0 .285-.086.285-.19 0-.104.114-.19.253-.19s.469-.234.733-.521c.566-.616 1.246-1.186 1.414-1.186.066 0 .357-.234.648-.521.291-.287.834-.816 1.206-1.176s.677-.809.677-.996c0-.188.089-.341.198-.341.258 0 1.13-.872 1.13-1.129 0-.11.085-.199.189-.199.105 0 .19-.15.19-.334 0-.184.214-.495.474-.69.261-.196.474-.515.474-.709 0-.194.07-.353.155-.353.194 0 .983-1.461.983-1.82 0-.146.084-.266.186-.266.103 0 .24-.214.306-.475.065-.26.195-.474.288-.474.093 0 .169-.256.169-.569 0-.313.085-.569.189-.569.105 0 .19-.213.19-.474s.085-.474.19-.474c.104 0 .189-.305.189-.677 0-.373.128-.806.285-.962.156-.157.284-.487.284-.734s.086-.502.19-.567c.104-.064.19-.448.19-.853 0-.405.085-.789.189-.854.105-.064.19-.619.19-1.233 0-.613.085-1.168.19-1.232.104-.065.189-.79.189-1.613 0-.822.086-1.547.19-1.612.118-.073.19-1.93.19-4.942 0-3.09-.068-4.825-.19-4.825-.111 0-.19-.633-.19-1.518 0-.834-.077-1.517-.172-1.517-.095 0-.219-.491-.275-1.09-.165-1.756-.339-2.698-.521-2.81-.093-.058-.17-.303-.17-.545 0-.242-.128-.546-.284-.676-.157-.13-.285-.519-.285-.865 0-.347-.085-.682-.189-.747-.105-.064-.19-.283-.19-.485 0-.203-.085-.368-.19-.368-.104 0-.189-.207-.189-.459 0-.485-.565-1.625-.806-1.627-.079 0-.143-.126-.143-.279 0-.154-.184-.602-.41-.996-.226-.395-.52-.931-.655-1.191a2.502 2.502 0 0 0-.632-.753c-.214-.154-.389-.431-.389-.617 0-.185-.085-.337-.19-.337a.195.195 0 0 1-.189-.199c0-.257-.872-1.129-1.13-1.129-.109 0-.198-.13-.198-.289 0-.352-2.774-3.125-3.127-3.125-.05 0-.398-.299-.774-.664-.376-.365-.804-.664-.952-.664-.147 0-.268-.07-.268-.157s-.234-.279-.521-.427c-.287-.148-.635-.376-.773-.506-.137-.131-.372-.237-.521-.237-.149 0-.271-.086-.271-.19 0-.104-.171-.19-.379-.19-.209 0-.38-.085-.38-.189 0-.105-.213-.19-.474-.19s-.474-.085-.474-.19c0-.104-.162-.189-.359-.189-.197 0-.408-.128-.468-.285-.06-.156-.32-.284-.578-.284-.258 0-.522-.086-.586-.19-.065-.104-.283-.19-.486-.19-.202 0-.368-.085-.368-.189s-.294-.19-.653-.19c-.359 0-.705-.085-.769-.189-.065-.105-.362-.19-.66-.19-.298 0-.575-.1-.616-.222-.041-.125-.589-.26-1.248-.308-.646-.047-1.175-.16-1.175-.252 0-.091-.469-.166-1.043-.166s-1.043-.08-1.043-.177c0-.35-11.132-.751-11.477-.413Zm47.513 1.658c0 .158 1.001 1.017 1.185 1.018.079 0 .143-.086.143-.19 0-.104-.11-.19-.243-.19-.134 0-.366-.17-.516-.379-.265-.367-.569-.505-.569-.259Zm1.707 1.178c0 .236.743.867.87.74.061-.061-.068-.288-.285-.505-.425-.425-.585-.489-.585-.235Zm3.224 2.021c.741.546.948.588.948.19 0-.176-.177-.285-.463-.285-.254 0-.515-.085-.58-.19a.437.437 0 0 0-.332-.189c-.119 0 .074.213.427.474Zm3.035 1.422c0 .105.17.19.379.19s.379-.085.379-.19c0-.104-.17-.189-.379-.189s-.379.085-.379.189Zm1.327.475a.285.285 0 1 0 .285-.285.286.286 0 0 0-.285.285Zm1.044.474c.064.104.33.189.591.189.268 0 .423-.082.357-.189-.065-.105-.331-.19-.592-.19-.267 0-.423.083-.356.19Zm1.801.379c0 .104.171.19.38.19.208 0 .379-.086.379-.19 0-.104-.171-.19-.379-.19-.209 0-.38.086-.38.19Zm1.328.379c0 .105.256.19.569.19.313 0 .569-.085.569-.19 0-.104-.256-.189-.569-.189-.313 0-.569.085-.569.189Zm2.655.38c0 .19.132.237.664.237s.664-.047.664-.237c0-.105-.299-.19-.664-.19-.365 0-.664.085-.664.19ZM31.638 90.28c.064.104.283.189.485.189.203 0 .368.069.368.153 0 .085.363.313.807.508.443.195 1.044.617 1.334.937.291.321.697.766.901.989.205.224.372.501.372.617 0 .116.086.21.19.21.104 0 .19.214.19.474 0 .261.085.475.189.475.105 0 .19.17.19.379s.085.379.19.379c.104 0 .189.378.189.84 0 .494.118.957.285 1.125.156.156.284.376.284.487 0 .329 3.263.263 3.71-.075.297-.225 1.177-.28 4.577-.284 2.595-.004 4.254-.079 4.326-.196.064-.104.588-.19 1.163-.19.95 0 1.018.027.747.298-.164.164-.298.543-.298.843 0 .299-.085.597-.19.661-.104.064-.189.534-.189 1.043 0 .509-.086.979-.19 1.043-.104.065-.19.62-.19 1.233 0 .614-.085 1.168-.189 1.233-.105.064-.19.612-.19 1.218 0 1.071-.012 1.098-.474 1.009-.261-.049-.474-.166-.474-.258s-.131-.167-.291-.167a.455.455 0 0 1-.393-.268c-.056-.147-.48-.379-.942-.516-.462-.136-.84-.314-.84-.396 0-.081-.213-.148-.474-.148s-.474-.085-.474-.19c0-.104-.203-.189-.451-.189s-.557-.128-.687-.285a.881.881 0 0 0-.592-.284c-.196 0-.356-.086-.356-.19 0-.104-.215-.19-.478-.19-.609 0-1.988-.426-1.988-.615 0-.079-.32-.146-.711-.149-.391-.004-.877-.132-1.08-.285a1.57 1.57 0 0 0-.806-.278c-.241 0-.438-.086-.438-.19 0-.104-.293-.19-.652-.19-.359 0-.706-.085-.77-.189-.065-.105-.491-.19-.948-.19-.458 0-.884-.085-.949-.19-.064-.104-.411-.189-.77-.189-.359 0-.652-.086-.652-.19 0-.104-.433-.19-.962-.19-.602 0-1.068-.106-1.246-.284-.157-.157-.578-.285-.935-.285-.358 0-.651-.085-.651-.189 0-.105-.464-.19-1.031-.19-.568 0-1.085-.085-1.15-.19-.064-.104-.453-.189-.864-.189s-.748-.086-.748-.19c0-.104-.249-.19-.553-.19-.304 0-.582-.072-.616-.16-.035-.089-.633-.431-1.329-.762-.929-.441-1.332-.751-1.516-1.166-.138-.312-.316-.567-.394-.567-.079 0-.144-.17-.144-.379s-.085-.379-.189-.379c-.105 0-.19-.214-.19-.475 0-.26.085-.474.19-.474.104 0 .189-.256.189-.569 0-.313.086-.569.19-.569.104 0 .19-.096.19-.215 0-.223.375-.591 1.241-1.219.279-.202.62-.474.758-.605.137-.13.379-.237.536-.237.158 0 .34-.085.404-.189.071-.114 1.358-.19 3.225-.19 1.866 0 3.154.076 3.224.19Zm201.517 3.034c0 .105.215.19.477.19s.625.078.806.174c.181.095.628.311.993.479.901.415 1.359.707 1.727 1.101.17.183.449.332.619.332.17 0 .31.086.31.19 0 .104.128.19.284.19.156 0 .284.128.284.284 0 .156.066.285.145.285.08 0 .356.341.614.758s.577.759.709.759.239.154.239.343c0 .189.171.527.38.751.208.224.379.619.379.878s.085.524.19.588c.104.065.189.283.189.486 0 .202.074.368.164.368.089 0 .216.447.281.994.065.547.204 1.024.311 1.059.106.036.193.527.193 1.092 0 .565.085 1.027.189 1.027.122 0 .19 1.707.19 4.742s-.068 4.742-.19 4.742c-.105 0-.189.498-.189 1.116 0 .621-.126 1.357-.284 1.659-.155.299-.283.864-.284 1.255-.001.391-.087.711-.191.711-.104 0-.19.208-.19.463s-.085.516-.189.58c-.105.065-.19.266-.19.448 0 .415-.426 1.351-.616 1.353-.079 0-.143.214-.143.475s-.109.474-.243.474-.404.271-.599.602c-.435.736-1.574 1.864-1.882 1.864-.125 0-.349.171-.5.379-.15.209-.428.38-.617.38s-.392.128-.452.284c-.06.157-.271.285-.468.285-.198 0-.359.085-.359.189 0 .105-.294.19-.653.19-.359 0-.705.085-.77.19-.064.104-.406.189-.759.189-.352 0-.694.086-.758.19-.068.11-1.109.19-2.477.19-1.447 0-2.36-.074-2.36-.19 0-.104-.341-.19-.758-.19-.418 0-.759-.085-.759-.189 0-.105-.299-.19-.664-.19-.365 0-.664-.085-.664-.19 0-.104-.213-.189-.474-.189-.295 0-.474-.108-.474-.285 0-.156-.152-.284-.337-.284-.186 0-.461-.171-.611-.38-.151-.208-.361-.38-.469-.381-.321-.004-2.756-2.599-2.756-2.937 0-.172-.132-.445-.293-.606-.162-.162-.345-.547-.407-.856-.061-.31-.228-.607-.37-.662-.141-.054-.257-.345-.257-.647 0-.302-.085-.549-.19-.549-.104 0-.189-.384-.189-.853 0-.47-.086-.854-.19-.854-.104 0-.19-.422-.19-.937 0-.515-.085-.99-.189-1.054-.12-.074-.19-2.12-.19-5.512 0-3.469.068-5.394.19-5.394.104 0 .189-.422.189-.937 0-.516.086-.99.19-1.054.104-.065.19-.497.19-.96 0-.463.085-.842.189-.842.105 0 .19-.16.19-.356 0-.196.128-.463.284-.593.157-.129.285-.439.285-.687 0-.248.064-.451.143-.451.079 0 .264-.271.411-.603.266-.601.675-1.146 1.485-1.976.234-.241.426-.491.426-.555 0-.23.548-.659.84-.659.164 0 .298-.085.298-.189 0-.105.092-.19.204-.19.111 0 .322-.107.467-.237.628-.563.842-.711 1.028-.711a.195.195 0 0 0 .198-.19c0-.104.256-.19.569-.19.313 0 .569-.085.569-.189 0-.105.208-.19.463-.19s.516-.085.58-.19c.071-.114 1.425-.189 3.425-.189 2.079 0 3.308.07 3.308.189Zm87.34 0c.065.105.363.19.664.19.301 0 .599.085.664.19.064.104.325.189.58.189.255 0 .463.086.463.19 0 .104.162.19.359.19.198 0 .408.128.468.284.06.157.264.285.453.285s.466.17.617.379c.15.209.342.379.427.379.201 0 1.469 1.269 1.469 1.469 0 .085.171.277.38.428.208.15.379.362.379.47 0 .109.213.428.474.709.261.281.474.643.474.804 0 .161.086.293.19.293.104 0 .19.214.19.477 0 .262.075.624.167.806.399.783.568 1.33.659 2.127.054.467.188.879.299.916.115.039.202.593.202 1.285 0 .685.083 1.217.19 1.217.12 0 .19 1.327.19 3.603 0 2.276-.07 3.604-.19 3.604-.111 0-.19.627-.19 1.501 0 .98-.077 1.528-.222 1.576-.125.042-.26.589-.307 1.249-.047.646-.16 1.174-.252 1.174s-.167.251-.167.558c0 .307-.085.61-.19.675-.104.064-.189.266-.189.448 0 .3-.619 1.638-1.195 2.581-.125.205-.463.602-.749.882-.287.28-.522.602-.522.717 0 .115-.073.208-.162.208-.088 0-.437.264-.773.585-.337.322-.904.707-1.261.856-.357.149-.649.356-.649.459 0 .102-.128.187-.284.187-.157 0-.285.085-.285.189 0 .105-.294.19-.653.19-.359 0-.705.085-.769.19-.065.104-.454.189-.865.189s-.748.086-.748.19c0 .116-.913.19-2.359.19-1.369 0-2.409-.08-2.477-.19-.064-.104-.454-.19-.865-.19s-.747-.085-.747-.189c0-.105-.251-.19-.558-.19-.307 0-.61-.085-.675-.19-.064-.104-.244-.189-.398-.189-.264 0-.457-.124-1.112-.712-.146-.13-.356-.237-.468-.237-.112 0-.203-.085-.203-.189 0-.105-.151-.19-.334-.19-.184 0-.503-.224-.708-.498a19.413 19.413 0 0 0-1.089-1.256c-.393-.417-.714-.876-.714-1.02 0-.143-.085-.261-.19-.261-.104 0-.189-.17-.189-.379s-.086-.379-.19-.379c-.104 0-.19-.161-.19-.356a.883.883 0 0 0-.284-.593c-.157-.129-.285-.439-.285-.687 0-.248-.085-.451-.189-.451-.105 0-.19-.293-.19-.652 0-.359-.085-.706-.19-.77-.104-.065-.189-.491-.189-.948 0-.457-.086-.884-.19-.949-.104-.064-.19-.667-.19-1.339 0-.687-.083-1.221-.189-1.221-.12 0-.19-1.324-.19-3.593 0-2.19.074-3.638.19-3.709.104-.065.189-.667.189-1.339 0-.688.083-1.222.19-1.222.104 0 .19-.421.19-.937 0-.515.085-.99.189-1.054.105-.065.19-.411.19-.77 0-.359.085-.653.19-.653.104 0 .189-.119.189-.266 0-.146.299-.795.664-1.441.365-.645.664-1.242.664-1.326 0-.218 2.633-2.846 2.851-2.846a.187.187 0 0 0 .184-.19c0-.104.17-.189.379-.189.211 0 .379-.127.379-.285 0-.156.129-.284.287-.284.279 0 .48-.08 1.37-.54.234-.12.639-.219.901-.219s.477-.085.477-.19c0-.119 1.197-.189 3.213-.189 1.937 0 3.26.075 3.33.189Z" fill="#8D8362"/></svg>